<svg xmlns="http://www.w3.org/2000/svg" width="25" height="26" viewBox="0 0 25 26">
    <path fill="#FFF" fill-rule="nonzero" d="M24.863 25.169l-7.283-7.586a10.283 10.283 0 0 0 3.008-7.275C20.588 4.624 15.971 0 10.294 0 4.618 0 0 4.624 0 10.308c0 5.685 4.618 10.309 10.294 10.309 2.492 0 4.779-.892 6.561-2.372l7.302 7.604a.486.486 0 0 0 .693.014.492.492 0 0 0 .013-.694zm-14.569-5.534c-5.136 0-9.314-4.184-9.314-9.327C.98 5.166 5.158.982 10.294.982s9.314 4.184 9.314 9.326c0 5.143-4.178 9.327-9.314 9.327z"/>
</svg>
